HIERARCHY
ROOT Elbow
{
	OFFSET	0.00	0.00	0.00
	CHANNELS 6 Xposition Yposition Zposition Zrotation Xrotation Yrotation
	JOINT L_Wrist
	{
		OFFSET	 0.208349	 0.000000	 0.000000
		CHANNELS 3 Zrotation Xrotation Yrotation
		JOINT L_index_Proximal
		{
			OFFSET	 0.093499	 0.010637	-0.002083
			CHANNELS 3 Zrotation Xrotation Yrotation
			JOINT L_index_b
			{
				OFFSET	 0.033153	 0.000000	 0.000000
				CHANNELS 3 Zrotation Xrotation Yrotation
				JOINT L_index_c
				{
					OFFSET	 0.018651	 0.000000	 0.000000
					CHANNELS 3 Zrotation Xrotation Yrotation
					End Site
					{
						OFFSET	 0.018651	 0.000000	 0.000000
					}
				}
			}
		}
		JOINT L_middle_Proximal
		{
			OFFSET	 0.090632	-0.006115	-0.003750
			CHANNELS 3 Zrotation Xrotation Yrotation
			JOINT L_middle_b
			{
				OFFSET	 0.037194	 0.000000	 0.000000
				CHANNELS 3 Zrotation Xrotation Yrotation
				JOINT L_middle_c
				{
					OFFSET	 0.021943	 0.000000	 0.000000
					CHANNELS 3 Zrotation Xrotation Yrotation
					End Site
					{
						OFFSET	 0.021943	 0.000000	 0.000000
					}
				}
			}
		}
		JOINT L_pinky_Proximal
		{
			OFFSET	 0.074015	-0.035449	-0.000417
			CHANNELS 3 Zrotation Xrotation Yrotation
			JOINT L_pinky_b
			{
				OFFSET	 0.027285	 0.000000	 0.000000
				CHANNELS 3 Zrotation Xrotation Yrotation
				JOINT L_pinky_c
				{
					OFFSET	 0.015093	 0.000000	 0.000000
					CHANNELS 3 Zrotation Xrotation Yrotation
					End Site
					{
						OFFSET	 0.015093	 0.000000	 0.000000
					}
				}
			}
		}
		JOINT L_ring_Proximal
		{
			OFFSET	 0.082801	-0.021859	-0.003750
			CHANNELS 3 Zrotation Xrotation Yrotation
			JOINT L_ring_b
			{
				OFFSET	 0.034478	 0.000000	 0.000000
				CHANNELS 3 Zrotation Xrotation Yrotation
				JOINT L_ring_c
				{
					OFFSET	 0.021377	 0.000000	 0.000000
					CHANNELS 3 Zrotation Xrotation Yrotation
					End Site
					{
						OFFSET	 0.021377	 0.000000	 0.000000
					}
				}
			}
		}
		JOINT L_thumb_Proximal
		{
			OFFSET	 0.030306	 0.018528	 0.004584
			CHANNELS 3 Zrotation Xrotation Yrotation
			JOINT L_thumb_a
			{
				OFFSET	 0.038520	 0.000000	 0.000000
				CHANNELS 3 Zrotation Xrotation Yrotation
				JOINT L_thumb_b
				{
					OFFSET	 0.026310	 0.000000	 0.000000
					CHANNELS 3 Zrotation Xrotation Yrotation
					End Site
					{
						OFFSET	 0.026310	 0.000000	 0.000000
					}
				}
			}
		}
	}
}
MOTION
Frames:    14
Frame Time: 0.01666667
 0.207981	-0.266095	 0.691394	 44.671030	 7.382200	-156.225700	-9.190659	 0.627094	 3.554629	-8.090359	 2.132361	-22.068860	-0.573468	 0.104596	-20.103000	 0.011418	 0.005130	-17.401540	-15.502460	-6.209275	-34.554490	-3.485262	 1.160572	-36.857620	-0.814897	 0.224427	-29.096280	-32.235050	-17.484620	-44.196750	-2.388748	 1.276261	-56.281720	-3.228535	 1.260752	-42.523770	-21.056970	-10.076860	-53.882480	-3.372996	 2.234448	-66.999420	-4.009595	 1.292044	-35.598610	 46.332620	 61.493970	-15.386050	-2.220567	 0.150035	-7.779012	 2.865459	-0.452180	-17.906590
 0.205907	-0.267164	 0.694459	 44.663460	 8.734035	-155.705900	-9.088116	 0.728820	 4.148335	-7.238955	 2.243138	-23.993860	-0.615169	 0.109643	-21.055990	-0.352025	 0.046655	-18.586190	-15.719740	-5.744959	-36.693180	-2.580752	 0.954223	-40.509900	-0.503534	 0.126282	-32.534340	-32.105010	-17.282180	-44.055700	-2.210710	 1.174432	-55.855990	-3.211023	 1.268703	-43.316300	-20.809830	-9.950372	-54.221770	-2.581118	 1.713571	-67.231190	-3.151983	 1.028258	-36.351480	 49.318860	 61.121690	-17.256950	-2.528789	 0.178828	-8.018982	 2.801756	-0.464126	-18.848060
 0.201497	-0.268315	 0.704680	 44.031350	 10.443280	-154.322000	-8.901928	 0.865154	 4.914515	-4.050008	 1.323813	-25.992720	-1.375618	 0.330380	-28.726040	 0.673423	-0.122577	-21.595840	-14.090180	-6.370420	-39.259080	 0.774982	-0.310289	-43.304870	 1.078191	-0.309589	-32.744260	-32.965330	-16.652850	-49.262710	-1.634754	 0.921540	-58.786000	-0.761959	 0.355312	-49.236740	-21.620340	-9.339217	-59.901490	-3.071744	 2.217321	-72.019490	-1.706276	 0.626859	-39.965630	 48.972530	 61.113980	-17.373690	-2.893855	 0.211133	-8.337599	 2.324984	-0.433241	-21.324640
 0.200065	-0.268743	 0.708216	 43.842660	 10.458400	-153.797000	-8.846993	 0.756882	 4.297212	-1.891007	 0.553779	-27.055160	-0.149674	 0.036563	-28.420410	 1.004287	-0.202205	-22.287040	-11.514630	-7.717386	-35.041090	 2.473241	-0.802716	-36.772740	 3.294151	-0.839249	-28.198400	-32.834800	-16.664680	-52.714260	-1.370878	 0.806589	-60.847930	 1.055905	-0.473927	-50.636870	-21.434420	-9.492314	-63.408570	-3.130215	 2.348977	-73.885150	-1.019706	 0.373289	-39.248920	 46.670150	 61.498590	-15.476080	-3.429028	 0.280119	-9.267013	 2.032996	-0.388877	-21.744630
 0.198162	-0.268987	 0.713949	 39.192430	 17.776800	-151.599300	-8.335912	 1.065684	 6.043143	-0.463653	 0.411379	-29.415360	-2.524798	 0.600427	-26.334780	-1.469721	 0.267210	-19.927580	-12.481000	-7.024379	-34.791200	 0.786298	-0.252194	-35.214440	 2.710734	-0.628352	-25.922080	-32.655240	-16.529440	-51.146190	-3.519264	 2.136343	-62.942780	-0.092173	 0.039598	-50.988220	-21.734060	-8.848117	-66.136320	-5.724320	 4.368844	-74.756770	-3.576876	 1.317228	-40.592290	 43.368960	 61.770740	-17.675840	-1.956252	 0.124206	-7.447861	 1.778000	-0.279640	-17.709990
 0.196938	-0.269781	 0.716600	 36.780060	 21.341510	-150.369900	-8.274023	 1.215319	 6.904339	-0.530683	 0.363224	-30.775940	-3.038292	 0.685211	-25.272260	-2.660121	 0.453204	-19.155910	-13.191980	-6.726832	-37.399640	-0.767154	 0.269427	-43.109460	 1.092391	-0.354027	-31.995490	-33.244130	-16.485620	-48.136900	-2.128422	 1.298167	-62.883110	-1.067700	 0.504499	-50.013480	-21.773140	-9.022513	-62.436830	-5.039158	 3.843212	-74.670890	-3.873734	 1.423599	-40.296930	 41.334090	 61.877100	-17.486230	-1.391033	 0.069021	-6.082492	 2.099735	-0.293619	-15.695160
 0.193647	-0.271377	 0.723733	 31.859670	 28.446760	-147.642000	-8.013176	 1.576506	 8.970688	-2.502744	 1.165741	-34.505660	-2.834816	 0.639598	-25.451240	-4.944641	 0.765539	-17.583870	-13.174790	-6.292081	-48.670360	-2.677090	 1.619311	-64.877270	-2.704655	 0.970528	-42.163680	-32.929260	-16.579400	-48.962880	-3.123777	 1.939921	-63.894890	-2.483363	 1.166554	-50.647120	-22.325410	-8.763005	-59.305260	-3.111947	 2.307866	-72.989120	-1.666931	 0.653860	-43.427270	 39.341060	 62.577230	-11.748200	-1.115388	 0.062469	-6.091188	 4.410661	-0.629959	-16.184190
 0.190237	-0.272340	 0.724723	 28.242730	 32.657680	-144.902900	-7.975352	 1.916355	 10.922630	-2.128345	 1.233660	-36.238490	-2.330822	 0.563164	-27.955100	-5.715040	 0.963050	-19.555820	-12.945140	-6.063616	-52.631370	-1.271209	 0.805040	-65.622730	-2.203848	 0.833265	-41.094800	-33.533070	-16.007650	-49.569810	-2.641107	 1.609699	-62.167950	-2.320598	 1.099477	-50.681320	-21.999560	-8.846819	-56.903160	-0.509679	 0.377707	-70.130250	 0.112737	-0.053646	-41.910740	 43.083240	 62.269520	-13.743200	-0.906335	 0.039897	-5.458525	 4.653812	-0.642932	-15.629430
 0.185368	-0.271876	 0.732331	 21.880660	 39.875110	-140.093800	-8.083408	 1.808887	 10.322890	-4.186157	 2.163337	-35.042810	-1.027852	 0.261513	-29.270600	-3.105775	 0.614738	-23.074290	-11.013320	-7.124263	-48.214850	-1.759306	 1.025519	-57.888950	-4.696991	 1.655159	-38.217600	-32.241000	-16.948460	-42.828420	 1.676228	-0.819510	-54.534170	-1.498339	 0.691119	-48.788150	-19.727730	-10.313370	-45.820050	 4.168344	-2.063359	-54.952350	 1.082302	-0.406913	-42.292950	 43.578830	 62.563550	-12.499310	-2.159032	 0.101440	-5.199949	 3.327868	-0.463647	-16.065160
 0.182697	-0.271791	 0.736509	 17.340060	 44.253540	-137.017300	-7.721183	 2.001855	 11.425990	-4.650411	 2.304560	-37.348840	-2.722727	 0.858578	-36.752040	-2.643919	 0.643755	-28.351430	-11.138320	-7.179738	-50.418380	-2.381668	 1.364058	-60.199260	-5.842007	 2.013586	-38.101020	-32.095900	-17.376780	-38.172290	 2.379155	-1.153784	-52.412240	-1.437135	 0.640540	-46.327790	-19.519840	-10.601420	-43.125390	 2.532298	-1.273937	-54.410370	-2.361065	 0.914803	-40.723890	 46.536270	 62.017310	-14.454460	-2.671357	 0.116672	-4.948619	 2.804139	-0.404708	-16.556380
 0.177767	-0.271416	 0.746355	 8.259345	 50.083320	-130.314700	-7.093549	 2.430569	 13.914050	-4.310099	 2.686871	-52.528340	-7.292975	 4.453086	-65.023610	-2.004983	 0.754462	-35.810840	-10.886230	-7.363789	-55.930360	 1.217553	-0.974735	-73.676000	-3.128391	 1.266464	-43.331370	-32.409610	-17.286050	-39.605550	 1.477648	-0.905460	-60.880000	-0.173332	 0.114244	-48.693240	-19.757540	-10.567430	-47.780050	 0.876894	-0.702477	-69.632190	-3.096746	 1.221984	-41.574180	 44.935090	 62.189580	-12.900130	-2.914583	 0.097043	-3.925375	 1.486700	-0.210815	-16.020140
 0.176275	-0.271631	 0.750158	 3.492862	 52.267730	-126.669600	-6.318303	 2.714179	 15.550300	-4.256720	 3.048594	-61.491520	-6.204410	 4.512727	-72.950160	-1.392088	 0.567554	-42.850490	-10.608930	-7.514049	-60.961190	 3.271985	-2.864965	-81.388640	 2.001862	-0.712370	-45.468650	-33.031540	-16.540900	-48.486120	 1.125986	-0.898548	-72.125760	 4.389150	-1.847895	-49.966460	-19.358690	-10.765030	-56.362300	 1.138366	-1.148425	-83.182750	 1.672263	-0.449959	-43.125970	 38.838100	 63.147270	-6.067639	-2.760363	 0.078123	-3.477782	 1.835608	-0.244891	-14.106200
 0.175760	-0.272813	 0.755246	-6.251612	 55.028220	-119.163800	-5.231014	 3.088923	 17.794910	-4.549534	 3.434741	-65.578750	-5.929115	 5.137939	-82.179800	-0.761855	 0.344006	-47.106850	-11.515570	-6.792284	-67.453380	 3.547038	-3.300922	-85.743230	 5.731863	-2.554965	-48.201210	-33.673160	-15.560570	-58.756420	 0.381753	-0.361048	-82.031020	 6.740150	-3.076954	-49.108080	-20.988900	-9.515985	-66.727080	 3.455782	-3.465482	-90.295600	 7.552612	-3.191277	-46.140710	 38.402140	 63.248900	-4.106988	-2.575475	 0.028972	-1.397436	 1.668120	-0.197323	-13.301670
 0.176169	-0.273047	 0.756877	-9.902718	 55.534320	-116.282400	-5.032672	 3.238583	 18.700320	-4.173801	 3.070191	-65.576340	-5.958179	 5.259614	-82.941980	-1.217205	 0.528728	-46.979600	-11.283730	-7.031341	-68.358390	 2.943839	-2.787547	-86.735660	 5.311669	-2.352924	-47.750800	-33.202390	-15.798750	-60.657230	 0.251446	-0.227580	-82.563940	 6.701656	-3.102335	-49.642820	-21.142280	-9.414690	-68.690350	 3.738039	-3.761689	-90.392730	 8.045911	-3.347789	-45.197830	 39.019110	 63.182250	-4.183954	-2.688091	 0.016667	-0.761051	 1.266331	-0.139809	-12.568400
